<svg width="19" height="25" viewBox="0 0 19 25" fill="none" xmlns="http://www.w3.org/2000/svg">
<path d="M6.95169 19.0473H11.5246C11.6735 17.6163 12.365 16.4353 13.4874 15.146C13.6148 15.0007 14.4259 14.1138 14.5217 13.9876C15.3184 12.9371 15.8178 11.6705 15.9623 10.3336C16.1069 8.99666 15.8907 7.64386 15.3387 6.43095C14.7867 5.21803 13.9213 4.19434 12.8423 3.47775C11.7632 2.76117 10.5143 2.38083 9.23938 2.38054C7.96447 2.38026 6.71541 2.76003 5.63605 3.47613C4.55668 4.19223 3.6909 5.21554 3.13841 6.4282C2.58593 7.64086 2.3692 8.99356 2.51319 10.3305C2.65719 11.6675 3.15604 12.9343 3.95231 13.9852C4.04932 14.1126 4.86262 15.0007 4.98783 15.1448C6.11132 16.4353 6.80279 17.6163 6.95169 19.0473ZM11.4942 21.4284H6.98214V22.6189H11.4942V21.4284ZM2.19262 15.4757C1.13025 14.0748 0.464456 12.3857 0.271924 10.6028C0.0793915 8.82002 0.367958 7.01606 1.10438 5.39876C1.8408 3.78146 2.99513 2.41663 4.43437 1.46148C5.87362 0.506324 7.53925 -0.000287207 9.23938 1.22153e-07C10.9395 0.000287451 12.605 0.507462 14.0439 1.4631C15.4829 2.41874 16.6368 3.78396 17.3727 5.40151C18.1087 7.01906 18.3967 8.82312 18.2036 10.6059C18.0105 12.3886 17.3442 14.0776 16.2814 15.4781C15.5821 16.3972 13.7502 17.8568 13.7502 19.6426V22.6189C13.7502 23.2504 13.5125 23.8561 13.0894 24.3026C12.6663 24.7491 12.0925 25 11.4942 25H6.98214C6.38381 25 5.80998 24.7491 5.3869 24.3026C4.96381 23.8561 4.72613 23.2504 4.72613 22.6189V19.6426C4.72613 17.8568 2.89312 16.3972 2.19262 15.4757ZM10.3662 9.52783H13.1862L8.11015 16.671V11.9089H5.29013L10.3662 4.76094V9.52902V9.52783Z" fill="#8789A3"/>
</svg>
