<svg width="20" height="12" viewBox="0 0 20 12" fill="none" xmlns="http://www.w3.org/2000/svg">
<path d="M18.1488 2H1.04089C0.78882 2 0.547072 1.89464 0.368831 1.70711C0.190589 1.51957 0.0904541 1.26522 0.0904541 1C0.0904541 0.734784 0.190589 0.48043 0.368831 0.292893C0.547072 0.105357 0.78882 0 1.04089 0H18.1488C18.4008 0 18.6426 0.105357 18.8208 0.292893C18.9991 0.48043 19.0992 0.734784 19.0992 1C19.0992 1.26522 18.9991 1.51957 18.8208 1.70711C18.6426 1.89464 18.4008 2 18.1488 2ZM14.347 7H1.04089C0.78882 7 0.547072 6.89464 0.368831 6.70711C0.190589 6.51957 0.0904541 6.26522 0.0904541 6C0.0904541 5.73478 0.190589 5.48043 0.368831 5.29289C0.547072 5.10536 0.78882 5 1.04089 5H14.347C14.5991 5 14.8408 5.10536 15.0191 5.29289C15.1973 5.48043 15.2975 5.73478 15.2975 6C15.2975 6.26522 15.1973 6.51957 15.0191 6.70711C14.8408 6.89464 14.5991 7 14.347 7ZM10.5453 12H1.04089C0.78882 12 0.547072 11.8946 0.368831 11.7071C0.190589 11.5196 0.0904541 11.2652 0.0904541 11C0.0904541 10.7348 0.190589 10.4804 0.368831 10.2929C0.547072 10.1054 0.78882 10 1.04089 10H10.5453C10.7973 10 11.0391 10.1054 11.2173 10.2929C11.3956 10.4804 11.4957 10.7348 11.4957 11C11.4957 11.2652 11.3956 11.5196 11.2173 11.7071C11.0391 11.8946 10.7973 12 10.5453 12Z" fill="#240F4F"/>
</svg>
