<svg width="19" height="28" viewBox="0 0 19 28" fill="none" xmlns="http://www.w3.org/2000/svg">
<path d="M16.8362 22.8064V21.8248C16.8362 20.2613 15.9649 18.8556 14.5627 18.1562L11.9009 16.829V11.8714C11.9009 10.5645 11.2917 9.36778 10.2724 8.60171C10.3256 8.31291 10.5027 8.06999 10.733 7.99359C12.4158 7.43512 13.5459 5.871 13.5459 4.10131C13.5459 1.56627 11.2748 -0.354187 8.74842 0.0555321C6.7947 0.372063 5.32066 2.18725 5.32066 4.27692V7.04957C3.27059 9.2129 2.03063 12.144 2.03063 15.3041V19.9374C2.03063 21.1653 2.374 22.3405 3.0149 23.3543C1.47796 23.9489 0.38562 25.4397 0.38562 27.1799V28.0002H16.0135C17.374 28.0002 18.4812 26.896 18.4812 25.5393C18.4817 24.9777 18.3288 24.4266 18.039 23.9451C17.7492 23.4636 17.3334 23.0699 16.8362 22.8064ZM13.9863 19.7105C14.7337 20.153 15.1909 20.9476 15.1909 21.8248V22.2136L13.3277 21.594L13.9863 19.7105ZM6.96589 4.27692C6.96589 2.98301 7.8458 1.86405 9.01272 1.67477C10.5911 1.41845 11.9009 2.62989 11.9009 4.10131C11.9015 4.61811 11.7389 5.12195 11.436 5.54126C11.1331 5.96057 10.7054 6.27402 10.2137 6.43707C9.56446 6.65243 9.05982 7.15403 8.80172 7.79124L6.96589 6.87567V4.27692ZM3.67564 15.3041C3.67564 12.7274 4.61127 10.2936 6.32159 8.38898L8.8917 9.67031C9.73329 10.0896 10.2559 10.9336 10.2559 11.8715V17.8428L12.5048 18.9646L11.7671 21.0756L8.61085 20.026V12.3047H6.96583V21.2085L9.45737 22.0369C8.36031 23.2516 6.62356 23.7405 5.00432 23.2025L4.95223 23.185C4.12802 22.2983 3.67564 21.1531 3.67564 19.9373V15.3041ZM16.0135 26.3596H2.17155C2.49782 25.4414 3.35607 24.7725 4.37477 24.7222C4.44781 24.7405 5.21932 25.0607 6.34407 25.0607C8.21977 25.0607 10.0113 24.1573 11.1168 22.5883L15.838 24.1577C16.1288 24.2542 16.3818 24.4396 16.561 24.6876C16.7402 24.9356 16.8365 25.2336 16.8362 25.5393C16.8362 25.9915 16.4672 26.3596 16.0135 26.3596H16.0135Z" fill="#8789A3"/>
</svg>
