<svg width="325" height="181" viewBox="0 0 325 181" fill="none" xmlns="http://www.w3.org/2000/svg">
<path d="M272.074 8.46499L162.556 45.8834L52.9265 8.46499L0.5 84.6343L162.556 140.04L324.5 84.6343L272.074 8.46499Z" fill="#4E2999"/>
<path opacity="0.45" d="M19.6046 81.5253L154.003 132.934L107.797 87.1881C107.797 87.1881 31.9337 68.8675 19.6046 81.5253Z" fill="#240F4F"/>
<path opacity="0.45" d="M305.507 81.5253L171.108 132.934L217.315 87.1881C217.203 87.1881 293.066 68.8675 305.507 81.5253Z" fill="#240F4F"/>
<path d="M162.556 140.04L0.5 84.6343V91.8515L162.556 147.257L324.5 91.8515V84.6343L162.556 140.04Z" fill="#994EF8"/>
<path d="M76.2518 173.35L95.0232 124.162L155.447 144.815L76.2518 173.35Z" fill="#3B1E77"/>
<path opacity="0.45" d="M81.4723 159.138L155.447 144.815L95.0232 124.162L81.4723 159.138Z" fill="#3B1E77"/>
<path d="M162.556 142.261L76.2518 173.35L82.6941 180.124L162.556 151.699L242.306 180.124L248.859 173.35L162.556 142.261Z" fill="#994EF8"/>
<path d="M248.859 173.35L229.977 124.162L169.553 144.815L248.859 173.35Z" fill="#3B1E77"/>
<path opacity="0.45" d="M243.528 159.138L169.553 144.815L229.977 124.162L243.528 159.138Z" fill="#3B1E77"/>
<path d="M162.555 151.699C165.807 151.699 168.442 149.064 168.442 145.814C168.442 142.564 165.807 139.929 162.555 139.929C159.304 139.929 156.669 142.564 156.669 145.814C156.669 149.064 159.304 151.699 162.555 151.699Z" fill="white" fill-opacity="0.5"/>
<path d="M267.409 8.46499L162.556 60.651L57.7026 8.46499C52.9265 14.7939 14.4952 78.8605 14.4952 78.8605C14.9395 78.8605 15.2728 78.9716 15.717 78.9716C112.128 88.6315 138.897 118.944 147.783 126.272C156.669 133.711 162.667 132.934 162.667 132.934C162.667 132.934 168.665 133.711 177.55 126.272C186.436 118.944 213.205 88.6315 309.616 78.9716C310.061 78.9716 310.394 78.8605 310.838 78.8605C310.616 78.8605 272.074 14.905 267.409 8.46499Z" fill="#F5B304"/>
<path d="M310.616 78.8605C310.172 78.8605 309.838 78.9716 309.394 78.9716C212.983 88.6315 186.214 118.944 177.328 126.272C168.442 133.711 162.444 132.934 162.444 132.934C162.444 132.934 156.447 133.711 147.561 126.272C138.675 118.944 111.906 88.6315 15.4949 78.9716C15.0506 78.9716 14.7173 78.8605 14.2731 78.8605C13.4955 80.0819 14.2731 80.9702 14.2731 80.9702C111.684 90.4081 137.564 120.831 146.45 128.271C155.336 135.599 162.333 135.044 162.333 135.044C162.333 135.044 169.331 135.599 178.217 128.271C187.103 120.942 212.983 90.5191 310.394 80.9702C310.616 80.9702 311.393 80.0819 310.616 78.8605Z" fill="#994EF8"/>
<path d="M263.41 2.35811C209.762 -10.5218 162.444 33.5587 162.444 33.5587C162.444 33.5587 115.127 -10.5218 61.4791 2.35811C61.4791 2.35811 46.2621 25.6752 25.2693 65.3144C25.2693 65.3144 130.9 77.195 162.444 121.498C193.989 77.195 299.62 65.3144 299.62 65.3144C278.627 25.6752 263.41 2.35811 263.41 2.35811Z" fill="#F5EFFB"/>
<path d="M299.62 65.3144C299.62 65.3144 193.989 77.195 162.444 121.498C131.011 77.195 25.3803 65.3144 25.3803 65.3144C25.3803 65.3144 25.3803 68.8675 19.4935 75.8626C19.4935 75.8626 115.35 82.7467 150.226 122.497C158.446 131.824 162.444 130.713 162.444 130.713C162.444 130.713 166.554 131.824 174.663 122.497C209.428 82.7467 305.396 75.8626 305.396 75.8626C299.62 68.7564 299.62 65.3144 299.62 65.3144Z" fill="#DFCBF4"/>
<path d="M257.412 7.02154C257.412 7.02154 217.314 -3.1936 162.444 39.3324C107.685 -3.08257 67.477 7.02154 67.477 7.02154L40.3752 59.6517C122.791 65.3144 162.444 106.952 162.444 106.952C162.444 106.952 202.097 65.3144 284.514 59.6517L257.412 7.02154ZM162.556 101.956C162.556 101.956 125.457 63.982 46.8174 56.5427L69.5874 9.24222C69.5874 9.24222 109.018 1.58087 162.556 41.7752C216.093 1.58087 255.524 9.24222 255.524 9.24222L278.294 56.5427C199.654 63.982 162.556 101.956 162.556 101.956Z" fill="#863ED5"/>
<path opacity="0.2" d="M171.5 83.5073C186.31 72.589 232.59 48.4275 263.691 51.7585" stroke="#863ED5" stroke-width="3" stroke-linecap="round"/>
<path opacity="0.2" d="M171.5 52.8688C184.644 42.5811 218.817 22.4242 250.362 24.0981" stroke="#863ED5" stroke-width="3" stroke-linecap="round"/>
<path opacity="0.2" d="M171.5 68.4136C185.754 57.3345 222.816 35.6271 257.026 37.4298" stroke="#863ED5" stroke-width="3" stroke-linecap="round"/>
<path opacity="0.2" d="M153.781 78.9647C138.971 68.0463 92.6906 43.8848 61.5901 47.2158" stroke="#863ED5" stroke-width="3" stroke-linecap="round"/>
<path opacity="0.2" d="M153.781 48.3262C140.637 38.0385 106.464 17.8815 74.9189 19.5555" stroke="#863ED5" stroke-width="3" stroke-linecap="round"/>
<path opacity="0.2" d="M153.781 63.8709C139.526 52.7919 102.465 31.0844 68.2545 32.8871" stroke="#863ED5" stroke-width="3" stroke-linecap="round"/>
<path d="M162.556 33.5587C162.556 33.5587 163.666 29.6725 165.777 30.7828C165.777 30.7828 164.444 93.7391 166.665 118.278C167.221 124.384 172.552 132.712 174.662 135.821H171.886L171.108 138.375C171.108 138.375 162.889 124.496 162.556 119.055C160.889 94.6274 161.778 39.4435 162.556 33.5587Z" fill="#54DAF5"/>
</svg>
